<svg width="134" height="77" viewBox="0 0 134 77" fill="none" xmlns="http://www.w3.org/2000/svg">
<path d="M52.8153 34.0891H48.5365C48.0179 34.0891 47.5721 34.2755 47.1994 34.6482C46.8266 35.021 46.6402 35.4667 46.6402 35.9854V38.611H51.4052V41.8201H46.6402V54H43.4311V35.9854C43.4311 34.5753 43.9336 33.3759 44.9384 32.3873C45.9271 31.3824 47.1264 30.88 48.5365 30.88H52.8153V34.0891ZM68.5447 41.0421C67.5884 40.329 66.5187 39.9724 65.3356 39.9724C64.1362 39.9724 63.0584 40.329 62.1022 41.0421C61.1784 41.7552 60.5382 42.6709 60.1816 43.7893H70.4653C70.1087 42.6709 69.4685 41.7552 68.5447 41.0421ZM73.7959 46.974L60.1816 46.9984C60.5382 48.1005 61.1784 49.0081 62.1022 49.7212C63.0584 50.4343 64.1362 50.7909 65.3356 50.7909C66.2918 50.7909 67.2481 50.5721 68.2043 50.1345C69.2092 49.6807 69.9466 49.1053 70.4166 48.4084L73.0666 50.2074C72.3048 51.342 71.1946 52.2577 69.7359 52.9546C68.2934 53.6515 66.8267 54 65.3356 54C62.9531 54 60.919 53.1572 59.2334 51.4716C57.5479 49.786 56.7051 47.7601 56.7051 45.3938C56.7051 43.0113 57.5479 40.9773 59.2334 39.2917C60.919 37.6061 62.9531 36.7633 65.3356 36.7633C67.7019 36.7633 69.7278 37.6061 71.4134 39.2917C73.099 40.9773 73.9418 43.0113 73.9418 45.3938C73.9418 45.9287 73.8931 46.4554 73.7959 46.974ZM83.3745 49.2107C84.428 50.2642 85.7003 50.7909 87.1914 50.7909C88.6987 50.7909 89.9791 50.2642 91.0326 49.2107C92.0861 48.1572 92.6128 46.8849 92.6128 45.3938C92.6128 43.9027 92.0861 42.6223 91.0326 41.5526C89.9629 40.4991 88.6825 39.9724 87.1914 39.9724C85.7003 39.9724 84.428 40.4991 83.3745 41.5526C82.321 42.6223 81.7943 43.9027 81.7943 45.3938C81.7943 46.8849 82.321 48.1572 83.3745 49.2107ZM95.8219 29.1782V45.3938C95.8219 47.7601 94.9791 49.786 93.2935 51.4716C91.608 53.1572 89.5739 54 87.1914 54C84.8251 54 82.7992 53.1572 81.1136 51.4716C79.428 49.786 78.5852 47.7601 78.5852 45.3938C78.5852 43.0113 79.428 40.9773 81.1136 39.2917C82.7992 37.6061 84.8251 36.7633 87.1914 36.7633C89.2011 36.7633 91.0083 37.4197 92.6128 38.7325V29.1782H95.8219ZM112.305 41.0421C111.349 40.329 110.279 39.9724 109.096 39.9724C107.897 39.9724 106.819 40.329 105.862 41.0421C104.939 41.7552 104.298 42.6709 103.942 43.7893H114.226C113.869 42.6709 113.229 41.7552 112.305 41.0421ZM117.556 46.974L103.942 46.9984C104.298 48.1005 104.939 49.0081 105.862 49.7212C106.819 50.4343 107.897 50.7909 109.096 50.7909C110.052 50.7909 111.008 50.5721 111.965 50.1345C112.969 49.6807 113.707 49.1053 114.177 48.4084L116.827 50.2074C116.065 51.342 114.955 52.2577 113.496 52.9546C112.054 53.6515 110.587 54 109.096 54C106.713 54 104.679 53.1572 102.994 51.4716C101.308 49.786 100.465 47.7601 100.465 45.3938C100.465 43.0113 101.308 40.9773 102.994 39.2917C104.679 37.6061 106.713 36.7633 109.096 36.7633C111.462 36.7633 113.488 37.6061 115.174 39.2917C116.859 40.9773 117.702 43.0113 117.702 45.3938C117.702 45.9287 117.653 46.4554 117.556 46.974ZM130.952 36.7633V39.9724C129.461 39.9724 128.188 40.4991 127.135 41.5526C126.081 42.6223 125.555 43.9027 125.555 45.3938V54H122.346V45.3938C122.346 43.0113 123.188 40.9773 124.874 39.2917C126.559 37.6061 128.585 36.7633 130.952 36.7633Z" fill="white"/>
<path d="M13.3868 42.8266C13.4611 42.8266 13.4611 42.8266 13.3868 42.8266C14.8731 41.4694 16.5824 39.6332 18.4403 38.1164C20.3726 36.5995 22.5278 35.4819 24.3114 34.3642C23.5682 30.133 22.7507 25.1833 21.8589 20.6328C19.1092 22.8682 16.2851 24.6245 13.4611 24.7043C10.5627 24.6245 7.73863 22.8682 4.98889 20.6328C4.09708 25.1833 3.27959 30.133 2.4621 34.444C4.32003 35.5617 6.47523 36.7592 8.33317 38.1962C10.2654 39.6332 11.9004 41.4694 13.3868 42.8266Z" fill="#F8F8F8"/>
<path d="M24.8317 44.503C24.7573 44.503 24.7573 44.503 24.683 44.503C24.5344 44.503 24.4601 44.503 24.3114 44.503C23.9399 44.4232 23.5683 44.3433 23.1967 44.1837C23.1224 44.1837 22.9737 44.1038 22.8994 44.1038C22.8251 44.024 22.6765 44.024 22.6021 43.9442C21.4131 43.3055 20.8928 42.108 20.8928 42.108L20.3726 42.9862C18.812 45.6207 15.9136 51.1292 15.9136 57.5957H14.0556H13.8327C13.8327 54.2427 13.8327 53.2847 13.907 50.5704C13.9813 49.293 14.5759 48.0955 14.7988 46.8182C14.8731 46.1795 14.8731 45.1417 14.4272 44.7425C14.2043 44.5828 13.907 44.503 13.5354 44.503C13.1638 44.503 12.7922 44.5828 12.6436 44.7425C12.272 45.0618 12.1977 46.0997 12.272 46.8182C12.495 48.0955 13.0895 49.293 13.1638 50.5704C13.2381 53.2847 13.2381 54.1629 13.2381 57.5957H13.0152H11.1573C11.1573 51.1292 8.25889 45.6207 6.69822 42.9862L6.178 42.108L0.306927 61.4278L0.0839754 62.3059C-0.213294 63.4236 0.306927 64.3816 1.19874 64.3816H13.4611H25.7235C26.6153 64.3816 27.1355 63.4236 26.8382 62.3059L26.6153 61.4278L25.8721 58.9529C25.6491 57.6756 25.4262 55.8394 25.6492 54.0831C25.7978 53.2049 26.0951 52.3267 26.6153 51.5284C27.8044 49.6922 29.5137 49.3729 30.8514 49.5325C30.9257 49.5325 31 49.4527 31 49.293C30.2568 45.5409 27.953 44.8223 24.8317 44.503Z" fill="#F8F8F8"/>
</svg>
